<?xml version="1.0" encoding="UTF-8"?>
<svg version="1.1" xmlns="http://www.w3.org/2000/svg" width="500" height="500">
<path d="M0 0 C1.34835368 -0.00571693 2.69670254 -0.01268625 4.04504395 -0.02079773 C7.67545306 -0.03860135 11.30561879 -0.03758482 14.93605828 -0.03185534 C17.98232036 -0.0287439 21.02853699 -0.03487771 24.07479256 -0.04089409 C31.27044125 -0.05489658 38.46597112 -0.05341468 45.66162109 -0.04199219 C53.04903341 -0.03052336 60.43608215 -0.04457546 67.82344657 -0.07138866 C74.19838247 -0.09364839 80.5732051 -0.10015983 86.94817704 -0.09431225 C90.74133563 -0.09096489 94.53426149 -0.09320747 98.32738686 -0.11056328 C101.89895589 -0.12619482 105.46999281 -0.12190087 109.04154205 -0.10325813 C110.95197415 -0.09790048 112.86243109 -0.11196332 114.77281189 -0.12695312 C126.96562548 -0.02472432 139.49799004 2.56886483 149.21362305 10.40405273 C149.21362305 11.06405273 149.21362305 11.72405273 149.21362305 12.40405273 C149.78081055 12.6219043 150.34799805 12.83975586 150.93237305 13.06420898 C157.75315001 17.07024751 163.29258676 26.73333 165.49299622 34.1592865 C166.28540682 37.72727351 166.62219658 41.20159677 166.80615234 44.83984375 C166.84615451 45.60598527 166.88615667 46.37212679 166.92737103 47.16148472 C167.48236424 59.47298513 167.31115998 71.80677647 167.24481416 84.12732387 C167.23304097 86.32757595 167.22241754 88.52783105 167.21207237 90.72809029 C167.17902652 97.64309406 167.14117458 104.55804823 167.09670717 111.47298807 C167.04582178 119.40216449 167.01165955 127.33118712 166.99152642 135.26049989 C166.9747982 141.43433885 166.94287694 147.60798643 166.89968032 153.78169638 C166.87435151 157.45109479 166.85527398 161.12025681 166.85230446 164.78974724 C166.84853827 168.87628115 166.81324266 172.96197938 166.77539062 177.04833984 C166.77884995 178.2428627 166.78230927 179.43738556 166.78587341 180.66810608 C166.6560198 190.18028747 164.5903627 198.68460229 159.08862305 206.59155273 C158.59104492 207.32760742 158.0934668 208.06366211 157.58081055 208.82202148 C157.12963867 209.3440918 156.6784668 209.86616211 156.21362305 210.40405273 C155.55362305 210.40405273 154.89362305 210.40405273 154.21362305 210.40405273 C154.21362305 211.06405273 154.21362305 211.72405273 154.21362305 212.40405273 C153.55362305 212.40405273 152.89362305 212.40405273 152.21362305 212.40405273 C152.21362305 213.06405273 152.21362305 213.72405273 152.21362305 214.40405273 C149.73862305 215.39405273 149.73862305 215.39405273 147.21362305 216.40405273 C147.21362305 217.06405273 147.21362305 217.72405273 147.21362305 218.40405273 C129.70898853 228.47000893 112.53647359 227.55874687 92.87768555 227.53686523 C90.70990996 227.53754135 88.54213446 227.53851392 86.37435913 227.5397644 C81.83737463 227.54123257 77.30040991 227.53911907 72.76342773 227.53442383 C68.17910461 227.52990256 63.59482108 227.52982085 59.01049805 227.53442383 C44.07772097 227.54935763 29.14599081 227.52145053 14.21362305 227.40405273 C13.33729721 227.3975621 12.46097137 227.39107147 11.55809021 227.38438416 C6.93288681 227.34700939 2.30913687 227.28755802 -2.31514359 227.18697739 C-4.23336448 227.14810607 -6.15190561 227.12613221 -8.07040405 227.10501099 C-17.81451589 226.8344583 -26.13866915 224.40634643 -34.47387695 219.27905273 C-35.30274414 218.78147461 -36.13161133 218.28389648 -36.9855957 217.77124023 C-37.57985352 217.32006836 -38.17411133 216.86889648 -38.78637695 216.40405273 C-38.78637695 215.74405273 -38.78637695 215.08405273 -38.78637695 214.40405273 C-39.44637695 214.40405273 -40.10637695 214.40405273 -40.78637695 214.40405273 C-42.41137695 213.02905273 -42.41137695 213.02905273 -43.78637695 211.40405273 C-43.78637695 210.74405273 -43.78637695 210.08405273 -43.78637695 209.40405273 C-44.44637695 209.40405273 -45.10637695 209.40405273 -45.78637695 209.40405273 C-47.15356445 207.63842773 -47.15356445 207.63842773 -48.66137695 205.15405273 C-49.15379883 204.36514648 -49.6462207 203.57624023 -50.15356445 202.76342773 C-55.01424903 192.76297621 -56.37224656 183.81113836 -56.30395508 172.75390625 C-56.30938967 171.32496431 -56.31651976 169.89602799 -56.32519531 168.46710205 C-56.34327477 164.62187862 -56.33642521 160.7770893 -56.32367897 156.93185925 C-56.31346876 152.88473265 -56.32296689 148.83764033 -56.32922363 144.79051208 C-56.33647773 137.99617929 -56.32697231 131.20202106 -56.30786133 124.40771484 C-56.2861056 116.58343583 -56.29314341 108.75957406 -56.31516695 100.93530518 C-56.33339561 94.18583532 -56.33584276 87.43649011 -56.32541227 80.68700355 C-56.319217 76.66978662 -56.31823088 72.65276492 -56.33155823 68.63556099 C-56.34322533 64.85549293 -56.3348963 61.07595571 -56.3119812 57.29594421 C-56.30428204 55.26964522 -56.31595721 53.24330062 -56.32849121 51.21702576 C-56.22090415 39.41405288 -53.9648134 27.44706675 -45.78637695 18.40405273 C-45.12637695 18.40405273 -44.46637695 18.40405273 -43.78637695 18.40405273 C-43.51825195 17.80463867 -43.25012695 17.20522461 -42.97387695 16.58764648 C-38.54964425 8.45229754 -28.36956009 4.40503601 -19.95954895 1.8558197 C-13.28088172 0.06743333 -6.88071859 -0.02501561 0 0 Z M104.21362305 60.40405273 C103.51904953 61.72306367 102.84200908 63.05225644 102.21362305 64.40405273 C101.55362305 64.40405273 100.89362305 64.40405273 100.21362305 64.40405273 C98.23745771 66.50978839 98.23745771 66.50978839 96.21362305 69.15405273 C95.16174805 70.47663086 95.16174805 70.47663086 94.08862305 71.82592773 C92.52054622 73.98203338 91.30035821 75.98153894 90.21362305 78.40405273 C89.55362305 78.40405273 88.89362305 78.40405273 88.21362305 78.40405273 C86.80100776 80.02507062 86.80100776 80.02507062 85.40112305 82.09155273 C82.91437617 85.52591918 80.25549372 88.44017875 77.21362305 91.40405273 C73.61567638 94.90907231 73.61567638 94.90907231 72.21362305 99.40405273 C71.55362305 99.40405273 70.89362305 99.40405273 70.21362305 99.40405273 C66.57728765 102.88403781 66.57728765 102.88403781 65.21362305 107.40405273 C64.55362305 107.40405273 63.89362305 107.40405273 63.21362305 107.40405273 C60.18844395 110.45963696 60.18844395 110.45963696 59.21362305 114.40405273 C58.55362305 114.40405273 57.89362305 114.40405273 57.21362305 114.40405273 C54.18844395 117.45963696 54.18844395 117.45963696 53.21362305 121.40405273 C52.55362305 121.40405273 51.89362305 121.40405273 51.21362305 121.40405273 C49.63170487 122.88831506 49.63170487 122.88831506 48.08862305 124.77905273 C47.54979492 125.40553711 47.0109668 126.03202148 46.45581055 126.67749023 C45.01895158 128.32013701 45.01895158 128.32013701 45.21362305 130.40405273 C44.55362305 130.40405273 43.89362305 130.40405273 43.21362305 130.40405273 C42.55362305 131.39405273 41.89362305 132.38405273 41.21362305 133.40405273 C40.5381543 132.84975586 39.86268555 132.29545898 39.16674805 131.72436523 C38.2747168 130.99991211 37.38268555 130.27545898 36.46362305 129.52905273 C35.14104492 128.45010742 35.14104492 128.45010742 33.79174805 127.34936523 C31.63185381 125.71962686 29.67385705 124.49621269 27.21362305 123.40405273 C27.21362305 122.74405273 27.21362305 122.08405273 27.21362305 121.40405273 C26.55362305 121.40405273 25.89362305 121.40405273 25.21362305 121.40405273 C25.21362305 120.74405273 25.21362305 120.08405273 25.21362305 119.40405273 C23.51459281 117.88664297 21.75289582 116.43892474 19.96362305 115.02905273 C17.16048992 112.8117596 14.47661108 110.67347753 11.97924805 108.11499023 C10.38401023 106.17208685 10.38401023 106.17208685 8.21362305 106.40405273 C8.21362305 105.74405273 8.21362305 105.08405273 8.21362305 104.40405273 C7.14112305 103.76467773 6.06862305 103.12530273 4.96362305 102.46655273 C4.05870117 101.92708008 4.05870117 101.92708008 3.13549805 101.37670898 C0.18684837 99.88440458 -1.73653602 99.13604757 -5.00512695 99.97045898 C-10.19478411 102.23649079 -13.27791998 104.07358167 -15.78637695 109.40405273 C-16.80384612 113.20260429 -17.05791375 115.5118604 -15.91137695 119.27905273 C-13.27298823 123.15903615 -10.1392564 126.22364316 -6.74731445 129.45092773 C-4.78637695 131.40405273 -4.78637695 131.40405273 -3.78637695 133.40405273 C-3.12637695 133.40405273 -2.46637695 133.40405273 -1.78637695 133.40405273 C-1.78637695 134.06405273 -1.78637695 134.72405273 -1.78637695 135.40405273 C-1.12637695 135.40405273 -0.46637695 135.40405273 0.21362305 135.40405273 C0.21362305 136.06405273 0.21362305 136.72405273 0.21362305 137.40405273 C0.87362305 137.40405273 1.53362305 137.40405273 2.21362305 137.40405273 C2.21362305 138.06405273 2.21362305 138.72405273 2.21362305 139.40405273 C2.87362305 139.40405273 3.53362305 139.40405273 4.21362305 139.40405273 C4.21362305 140.06405273 4.21362305 140.72405273 4.21362305 141.40405273 C4.87362305 141.40405273 5.53362305 141.40405273 6.21362305 141.40405273 C6.21362305 142.06405273 6.21362305 142.72405273 6.21362305 143.40405273 C7.69723999 144.9045521 7.69723999 144.9045521 9.65112305 146.46655273 C21.98807957 156.95296578 21.98807957 156.95296578 24.21362305 161.40405273 C24.87362305 161.40405273 25.53362305 161.40405273 26.21362305 161.40405273 C26.41987305 161.98155273 26.62612305 162.55905273 26.83862305 163.15405273 C29.05787305 166.78555274 32.0631872 168.706494 36.10424805 170.01733398 C40.51699359 170.87729818 43.97704179 170.36583783 47.9831543 168.11889648 C53.01700733 164.24873627 57.27889368 159.36586219 61.21362305 154.40405273 C61.21362305 153.74405273 61.21362305 153.08405273 61.21362305 152.40405273 C61.87362305 152.40405273 62.53362305 152.40405273 63.21362305 152.40405273 C64.62623834 150.78303485 64.62623834 150.78303485 66.02612305 148.71655273 C68.51286993 145.28218629 71.17175238 142.36792672 74.21362305 139.40405273 C77.81156971 135.89903316 77.81156971 135.89903316 79.21362305 131.40405273 C79.87362305 131.40405273 80.53362305 131.40405273 81.21362305 131.40405273 C81.21362305 130.74405273 81.21362305 130.08405273 81.21362305 129.40405273 C81.87362305 129.40405273 82.53362305 129.40405273 83.21362305 129.40405273 C85.0299108 127.46029319 85.0299108 127.46029319 86.83862305 125.02905273 C87.47026367 124.21694336 88.1019043 123.40483398 88.75268555 122.56811523 C90.40013113 120.56295394 90.40013113 120.56295394 90.21362305 118.40405273 C90.87362305 118.40405273 91.53362305 118.40405273 92.21362305 118.40405273 C95.23880214 115.3484685 95.23880214 115.3484685 96.21362305 111.40405273 C96.87362305 111.40405273 97.53362305 111.40405273 98.21362305 111.40405273 C99.67022282 109.79022326 101.05411256 108.11042058 102.40112305 106.40405273 C105.81069576 102.12829407 109.30353481 97.99306054 112.9987793 93.96264648 C114.41854351 92.47050209 114.41854351 92.47050209 114.21362305 90.40405273 C114.87362305 90.40405273 115.53362305 90.40405273 116.21362305 90.40405273 C116.21362305 89.74405273 116.21362305 89.08405273 116.21362305 88.40405273 C116.87362305 88.40405273 117.53362305 88.40405273 118.21362305 88.40405273 C121.23880214 85.3484685 121.23880214 85.3484685 122.21362305 81.40405273 C122.87362305 81.40405273 123.53362305 81.40405273 124.21362305 81.40405273 C126.0299108 79.46029319 126.0299108 79.46029319 127.83862305 77.02905273 C128.47026367 76.21694336 129.1019043 75.40483398 129.75268555 74.56811523 C131.40013113 72.56295394 131.40013113 72.56295394 131.21362305 70.40405273 C131.87362305 70.40405273 132.53362305 70.40405273 133.21362305 70.40405273 C135.37618946 66.7595683 137.34043548 63.34428297 137.05737305 59.01342773 C135.65472475 54.10415871 133.32055433 50.52727299 129.23706055 47.44311523 C117.96264642 41.65355122 109.93368103 51.96734452 104.21362305 60.40405273 Z " fill="#23A0FE" transform="translate(194.786376953125,134.595947265625)"/>
<path d="M0 0 C1.35808591 -0.00243404 2.71617002 -0.00615926 4.07424927 -0.01106262 C7.72907482 -0.02038893 11.38362869 -0.01111803 15.03843284 0.00226951 C18.8796918 0.01366876 22.72093904 0.00947017 26.56221008 0.00752258 C33.00685005 0.00664259 39.45138422 0.01766077 45.89599609 0.03613281 C53.33114924 0.0573229 60.76614788 0.0608028 68.20132512 0.05457085 C75.37904237 0.04886441 82.5567056 0.05453619 89.73441505 0.0657444 C92.77847105 0.0703707 95.82249381 0.07127285 98.86655235 0.06915855 C102.45275649 0.06726638 106.03880471 0.07545046 109.6249733 0.09121895 C111.55801157 0.09744064 113.49107353 0.09396876 115.42411804 0.09014893 C121.67596346 0.12817962 127.13782744 0.51024708 133.1184082 2.37231445 C132.1284082 3.03231445 131.1384082 3.69231445 130.1184082 4.37231445 C128.28825951 4.00525093 128.28825951 4.00525093 126.1184082 3.37231445 C124.2142165 3.2817614 122.30713081 3.24603994 120.40078735 3.24533081 C119.23439224 3.24251099 118.06799713 3.23969116 116.86625671 3.23678589 C115.59031143 3.23881012 114.31436615 3.24083435 112.99975586 3.24291992 C111.63945977 3.24156455 110.27916405 3.23978385 108.91886902 3.23760986 C105.22666286 3.23305087 101.53448465 3.23481903 97.842278 3.23798895 C93.97601782 3.24052148 90.10976003 3.23817242 86.24349976 3.23660278 C79.74867321 3.23478327 73.25385803 3.23718124 66.7590332 3.24194336 C59.25642408 3.24738098 51.75384216 3.24562608 44.2512337 3.24011695 C37.80609963 3.23557416 31.36097375 3.23494113 24.9158386 3.23755562 C21.06814146 3.23911256 17.22045709 3.23932823 13.37276077 3.23601913 C9.75305476 3.23312365 6.13338367 3.23514692 2.51368141 3.24091339 C0.55632703 3.24285978 -1.40103031 3.23990103 -3.35838318 3.23678589 C-5.11643532 3.24101562 -5.11643532 3.24101562 -6.91000366 3.24533081 C-7.92431143 3.24570784 -8.93861919 3.24608486 -9.98366356 3.24647331 C-13.0184262 3.37825642 -15.89830502 3.81346713 -18.8815918 4.37231445 C-18.8815918 5.03231445 -18.8815918 5.69231445 -18.8815918 6.37231445 C-19.7478418 6.33106445 -20.6140918 6.28981445 -21.5065918 6.24731445 C-25.00517648 6.37689166 -27.62710777 7.13251101 -30.8815918 8.37231445 C-30.8815918 9.03231445 -30.8815918 9.69231445 -30.8815918 10.37231445 C-32.2015918 10.37231445 -33.5215918 10.37231445 -34.8815918 10.37231445 C-34.6650293 11.45512695 -34.6650293 11.45512695 -34.4440918 12.55981445 C-34.8815918 15.37231445 -34.8815918 15.37231445 -36.29956055 16.67700195 C-37.54342754 17.53100019 -38.7992548 18.36778379 -40.06518555 19.1887207 C-43.38243926 21.35028603 -45.49457039 23.33219441 -46.8815918 27.05981445 C-47.2115918 27.82293945 -47.5415918 28.58606445 -47.8815918 29.37231445 C-50.0065918 30.18481445 -50.0065918 30.18481445 -51.8815918 30.37231445 C-51.24726241 27.20779483 -50.14976251 24.85543667 -48.4440918 22.12231445 C-48.01225586 21.4159082 -47.58041992 20.70950195 -47.13549805 19.98168945 C-46.72170898 19.4505957 -46.30791992 18.91950195 -45.8815918 18.37231445 C-45.2215918 18.37231445 -44.5615918 18.37231445 -43.8815918 18.37231445 C-43.6134668 17.77290039 -43.3453418 17.17348633 -43.0690918 16.5559082 C-38.64577906 8.42225089 -28.46772863 4.37574672 -20.06071472 1.82209778 C-13.34762569 0.02460249 -6.91516441 -0.04236628 0 0 Z " fill="#6BB2F0" transform="translate(194.881591796875,134.627685546875)"/>
<path d="M0 0 C0 3 0 3 -1 5 C-1.66 5 -2.32 5 -3 5 C-3 5.66 -3 6.32 -3 7 C-3.66 7 -4.32 7 -5 7 C-5 7.66 -5 8.32 -5 9 C-7.475 9.99 -7.475 9.99 -10 11 C-10 11.66 -10 12.32 -10 13 C-27.50463452 23.0659562 -44.67714946 22.15469413 -64.3359375 22.1328125 C-66.50371308 22.13348861 -68.67148859 22.13446118 -70.83926392 22.13571167 C-75.37624841 22.13717984 -79.91321313 22.13506633 -84.45019531 22.13037109 C-90.16482518 22.12473507 -95.87940793 22.12802622 -101.5940361 22.13379288 C-121.74408852 22.15126295 -141.89500618 22.16069879 -162.0390625 21.6171875 C-163.34193207 21.58682404 -164.64480164 21.55646057 -165.9871521 21.525177 C-167.15364288 21.48705902 -168.32013367 21.44894104 -169.52197266 21.40966797 C-170.51830719 21.37904266 -171.51464172 21.34841736 -172.54116821 21.31686401 C-175 21 -175 21 -178 19 C-177.24277838 18.99576806 -176.48555676 18.99153612 -175.70538902 18.98717594 C-157.27704502 18.88385291 -138.84873938 18.77521265 -120.42046165 18.66066074 C-111.50867382 18.60539234 -102.59688197 18.55192089 -93.68505859 18.50268555 C-85.91715079 18.45976545 -78.14927169 18.41346785 -70.38140833 18.36312145 C-66.26874048 18.33658349 -62.1560781 18.31173215 -58.04337692 18.29092598 C-54.17090347 18.27128174 -50.29848435 18.24711512 -46.42605972 18.21950912 C-45.0063145 18.2101798 -43.5865574 18.20248991 -42.16679382 18.19658089 C-40.2245648 18.1882494 -38.28236712 18.17338478 -36.34017944 18.15821838 C-35.25430731 18.15176583 -34.16843517 18.14531328 -33.04965782 18.1386652 C-29.93811991 17.99718637 -27.03645597 17.70052185 -24 17 C-23.67 16.34 -23.34 15.68 -23 15 C-21.35 15 -19.7 15 -18 15 C-18 14.34 -18 13.68 -18 13 C-16.68 12.67 -15.36 12.34 -14 12 C-14.33 11.01 -14.66 10.02 -15 9 C-14.34 9 -13.68 9 -13 9 C-13 7.68 -13 6.36 -13 5 C-10.36 5 -7.72 5 -5 5 C-5.33 4.01 -5.66 3.02 -6 2 C-4.02 1.34 -2.04 0.68 0 0 Z " fill="#41A0E1" transform="translate(352,340)"/>
<path d="M0 0 C8.64542534 12.96813801 4.09506821 37.84035851 3.99825954 52.82206583 C3.98424471 55.02832331 3.97165905 57.23458462 3.9595108 59.44085312 C3.9167603 67.15950987 3.86758345 74.87809803 3.81298828 82.59667969 C3.76250322 89.76208836 3.72740955 96.92746666 3.69905448 104.09299386 C3.67380828 110.28204772 3.63720548 116.47096933 3.59196877 122.65990913 C3.56528907 126.34091177 3.54322866 130.02179656 3.53295135 133.70288467 C3.5211227 137.79710408 3.48571467 141.89079826 3.44824219 145.98486328 C3.44810623 147.19017197 3.44797028 148.39548065 3.4478302 149.63731384 C3.36679365 156.13316501 2.73333702 161.08286993 0 167 C-0.33 167 -0.66 167 -1 167 C-1 164.36 -1 161.72 -1 159 C-0.34 159 0.32 159 1 159 C0.67 106.53 0.34 54.06 0 0 Z " fill="#369BDE" transform="translate(358,166)"/>
<path d="M0 0 C0.33 0 0.66 0 1 0 C0.67 3.3 0.34 6.6 0 10 C-0.66 10 -1.32 10 -2 10 C-1.91617533 28.72352864 -1.82106995 47.4469674 -1.71247292 66.17036915 C-1.66231538 74.86364285 -1.61587287 83.55690697 -1.578125 92.25024414 C-1.54522101 99.82587738 -1.5053987 107.40143696 -1.45720994 114.97698897 C-1.43192904 118.98952182 -1.41015251 123.00200571 -1.39665604 127.01459694 C-1.38385004 130.78944101 -1.36181165 134.56411729 -1.33261681 138.33886909 C-1.32352955 139.72600239 -1.31784812 141.11316272 -1.31578636 142.50032425 C-1.31247209 144.39106736 -1.29583355 146.28177326 -1.2784729 148.17243958 C-1.27294214 149.23157971 -1.26741138 150.29071985 -1.26171303 151.38195515 C-1.18347106 154.23307799 -1.18347106 154.23307799 1 157 C1.75 160.0625 1.75 160.0625 2 163 C1.01 163.99 1.01 163.99 0 165 C-3.21573235 157.1516899 -3.42842188 150.02588575 -3.38818359 141.62695312 C-3.39225565 140.19196678 -3.39760108 138.75698357 -3.40411377 137.32200623 C-3.4177179 133.44801235 -3.4125175 129.57425983 -3.40297651 125.70026207 C-3.39534392 121.6325659 -3.40243547 117.56488943 -3.40713501 113.49719238 C-3.41258213 106.66817543 -3.40542844 99.83925603 -3.39111328 93.01025391 C-3.37478875 85.13205728 -3.380078 77.25409364 -3.3965925 69.37590265 C-3.4102372 62.59345087 -3.41211248 55.81106893 -3.40427649 49.02860785 C-3.39961634 44.98579436 -3.39892922 40.94309014 -3.40888596 36.90028381 C-3.41759696 33.09819274 -3.41145896 29.29639999 -3.39420319 25.4943409 C-3.39026028 24.10486914 -3.39133444 22.71537197 -3.39799118 21.32591057 C-3.43176077 13.55672417 -2.95883328 7.22132273 0 0 Z " fill="#88BCEF" transform="translate(142,166)"/>
<path d="M0 0 C0 0.33 0 0.66 0 1 C-1.98 1.33 -3.96 1.66 -6 2 C-6 2.66 -6 3.32 -6 4 C-6.86625 3.95875 -7.7325 3.9175 -8.625 3.875 C-12.12358468 4.00457721 -14.74551597 4.76019656 -18 6 C-18 6.66 -18 7.32 -18 8 C-19.32 8 -20.64 8 -22 8 C-21.7834375 9.0828125 -21.7834375 9.0828125 -21.5625 10.1875 C-22 13 -22 13 -23.41796875 14.3046875 C-24.66183574 15.15868573 -25.917663 15.99546934 -27.18359375 16.81640625 C-30.50084746 18.97797157 -32.61297859 20.95987996 -34 24.6875 C-34.33 25.450625 -34.66 26.21375 -35 27 C-37.125 27.8125 -37.125 27.8125 -39 28 C-38.36567062 24.83548038 -37.26817072 22.48312221 -35.5625 19.75 C-35.13066406 19.04359375 -34.69882813 18.3371875 -34.25390625 17.609375 C-33.84011719 17.07828125 -33.42632812 16.5471875 -33 16 C-32.34 16 -31.68 16 -31 16 C-30.731875 15.40058594 -30.46375 14.80117187 -30.1875 14.18359375 C-25.93558309 6.36510181 -16.52344634 2.91376576 -8.75 -0.375 C-5.52802298 -1.1072675 -3.19220715 -0.76004932 0 0 Z " fill="#53A5EF" transform="translate(182,137)"/>
<path d="M0 0 C3.58273331 1.65356922 6.80973467 3.67980703 10 6 C10 6.66 10 7.32 10 8 C10.99 8.33 11.98 8.66 13 9 C13 9.66 13 10.32 13 11 C13.99 10.67 14.98 10.34 16 10 C16.33 9.34 16.66 8.68 17 8 C19.31 8.33 21.62 8.66 24 9 C24.33 8.34 24.66 7.68 25 7 C25.99 7.33 26.98 7.66 28 8 C27.38722388 10.96175123 26.74627478 12.38058783 25 15 C24.34 15 23.68 15 23 15 C22.34 16.32 21.68 17.64 21 19 C20.67 18.34 20.34 17.68 20 17 C18.67378291 16.3192868 17.33890377 15.65540744 16 15 C14.39028993 13.87000485 12.80736832 12.7011076 11.25 11.5 C10.45078125 10.8915625 9.6515625 10.283125 8.828125 9.65625 C8.22484375 9.1096875 7.6215625 8.563125 7 8 C7 7.34 7 6.68 7 6 C6.34 6 5.68 6 5 6 C5 5.34 5 4.68 5 4 C4.360625 3.71125 3.72125 3.4225 3.0625 3.125 C1 2 1 2 0 0 Z " fill="#2A9FF4" transform="translate(215,250)"/>
<path d="M0 0 C0 3 0 3 -1 5 C-1.66 5 -2.32 5 -3 5 C-3 5.66 -3 6.32 -3 7 C-3.66 7 -4.32 7 -5 7 C-5 7.66 -5 8.32 -5 9 C-6.65 9.66 -8.3 10.32 -10 11 C-10 11.66 -10 12.32 -10 13 C-24.77480916 21.49618321 -24.77480916 21.49618321 -30.4375 20.625 C-31.2109375 20.315625 -31.2109375 20.315625 -32 20 C-30 18 -30 18 -26.9375 17.5 C-25.4834375 17.2525 -25.4834375 17.2525 -24 17 C-23.67 16.34 -23.34 15.68 -23 15 C-21.35 15 -19.7 15 -18 15 C-18 14.34 -18 13.68 -18 13 C-16.68 12.67 -15.36 12.34 -14 12 C-14.33 11.01 -14.66 10.02 -15 9 C-14.34 9 -13.68 9 -13 9 C-13 7.68 -13 6.36 -13 5 C-10.36 5 -7.72 5 -5 5 C-5.33 4.01 -5.66 3.02 -6 2 C-4.02 1.34 -2.04 0.68 0 0 Z " fill="#2CAEF6" transform="translate(352,340)"/>
<path d="M0 0 C3.5875213 1.33250791 6.8364623 2.830717 10 5 C10 5.66 10 6.32 10 7 C10.56332031 7.21011719 11.12664062 7.42023438 11.70703125 7.63671875 C14.84834231 9.50438069 16.50846357 11.89151068 18.6875 14.8125 C19.47511719 15.85019531 20.26273437 16.88789063 21.07421875 17.95703125 C22.88155404 20.81284098 23.63818918 22.68237877 24 26 C23.34 26 22.68 26 22 26 C18 19.375 18 19.375 18 16 C17.38125 15.938125 16.7625 15.87625 16.125 15.8125 C14 15 14 15 12.75 12.4375 C12.5025 11.633125 12.255 10.82875 12 10 C9.69 9.67 7.38 9.34 5 9 C5 8.01 5 7.02 5 6 C3.37446717 4.29319053 1.70884005 2.62339805 0 1 C0 0.67 0 0.34 0 0 Z " fill="#76BEF2" transform="translate(334,140)"/>
<path d="M0 0 C0.66 0.33 1.32 0.66 2 1 C1.67 2.65 1.34 4.3 1 6 C0.01 6 -0.98 6 -2 6 C-2.391875 7.134375 -2.78375 8.26875 -3.1875 9.4375 C-5 13 -5 13 -7.6875 13.9375 C-8.450625 13.958125 -9.21375 13.97875 -10 14 C-10 15.65 -10 17.3 -10 19 C-10.928125 19.12375 -10.928125 19.12375 -11.875 19.25 C-12.57625 19.4975 -13.2775 19.745 -14 20 C-14.28875 20.6084375 -14.5775 21.216875 -14.875 21.84375 C-16.23664107 24.45356206 -17.73782852 25.55587831 -20.125 27.25 C-20.84945312 27.77078125 -21.57390625 28.2915625 -22.3203125 28.828125 C-22.87460938 29.21484375 -23.42890625 29.6015625 -24 30 C-22.37159701 26.59780091 -20.51714616 23.83178943 -18 21 C-17.34 21 -16.68 21 -16 21 C-15.7525 20.443125 -15.505 19.88625 -15.25 19.3125 C-13.77075182 16.57589087 -12.06532561 14.32349131 -10 12 C-9.34 12 -8.68 12 -8 12 C-7.73445313 11.42765625 -7.46890625 10.8553125 -7.1953125 10.265625 C-5.94323109 7.8923988 -4.5063648 5.87786714 -2.875 3.75 C-2.33617187 3.04359375 -1.79734375 2.3371875 -1.2421875 1.609375 C-0.83226562 1.07828125 -0.42234375 0.5471875 0 0 Z " fill="#95D5F5" transform="translate(274,266)"/>
<path d="M0 0 C0.33 1.32 0.66 2.64 1 4 C-3.65229134 9.0374148 -7.19705623 10.68541235 -14.05859375 10.9921875 C-14.69925781 10.99476563 -15.33992187 10.99734375 -16 11 C-14.948125 10.1646875 -14.948125 10.1646875 -13.875 9.3125 C-11.88169998 7.70919346 -9.92516073 6.05951564 -8 4.375 C-5.31140351 2.24652778 -3.2293421 1.04478715 0 0 Z " fill="#4AB2F6" transform="translate(256,293)"/>
<path d="M0 0 C0.99 0.33 1.98 0.66 3 1 C3 1.66 3 2.32 3 3 C4.98 2.67 6.96 2.34 9 2 C7.32971708 5.94794145 4.8204435 8.81796118 2 12 C1.67 12 1.34 12 1 12 C1 10.35 1 8.7 1 7 C0.34 7 -0.32 7 -1 7 C-0.67 4.69 -0.34 2.38 0 0 Z " fill="#4EAEF5" transform="translate(297,184)"/>
<path d="M0 0 C3.30601594 4.95902391 3.31872381 9.3018051 3.625 15.0625 C3.6765625 15.89072266 3.728125 16.71894531 3.78125 17.57226562 C3.82507813 18.36439453 3.86890625 19.15652344 3.9140625 19.97265625 C3.9752124 21.05945679 3.9752124 21.05945679 4.03759766 22.16821289 C4 24 4 24 3 26 C2.34 26 1.68 26 1 26 C0.67 17.42 0.34 8.84 0 0 Z " fill="#50A4E1" transform="translate(358,166)"/>
<path d="M0 0 C3.01015294 1.3510265 5.11967466 2.86335687 7.453125 5.1875 C8.071875 5.80367188 8.690625 6.41984375 9.328125 7.0546875 C9.96234375 7.69664062 10.5965625 8.33859375 11.25 9 C11.8996875 9.64195312 12.549375 10.28390625 13.21875 10.9453125 C13.83234375 11.56148438 14.4459375 12.17765625 15.078125 12.8125 C15.63918945 13.37582031 16.20025391 13.93914062 16.77832031 14.51953125 C18 16 18 16 18 18 C18.66 18 19.32 18 20 18 C20.66 19.32 21.32 20.64 22 22 C17.35427001 20.61883703 17.35427001 20.61883703 15.78125 17.87109375 C13.33011492 13.92025103 10.14142231 10.96873732 6.8125 7.75 C5.52522343 6.49696625 4.23994698 5.24187322 2.95703125 3.984375 C2.38960205 3.43491211 1.82217285 2.88544922 1.23754883 2.31933594 C0 1 0 1 0 0 Z " fill="#BDE6FB" transform="translate(201,278)"/>
<path d="M0 0 C0.33 0 0.66 0 1 0 C1.25792141 3.3317484 1.47600187 6.66500846 1.6875 10 C1.76033203 10.93457031 1.83316406 11.86914062 1.90820312 12.83203125 C2.27855716 19.0626933 1.60767293 23.31540708 -1 29 C-1.33 29 -1.66 29 -2 29 C-2 26.36 -2 23.72 -2 21 C-1.34 21 -0.68 21 0 21 C0 14.07 0 7.14 0 0 Z " fill="#53B7F3" transform="translate(359,304)"/>
<path d="M0 0 C0.99 0.33 1.98 0.66 3 1 C3 1.33 3 1.66 3 2 C4.32 2.33 5.64 2.66 7 3 C6.09507812 3.29390625 6.09507812 3.29390625 5.171875 3.59375 C0.49788986 5.34272508 -2.31718008 6.64505297 -4.5625 11.25 C-5.07095684 12.48837488 -5.56104502 13.73531853 -6 15 C-7.1445351 11.23023755 -6.5716871 9.6056351 -5 6 C-5 5.01 -5 4.02 -5 3 C-3.35 3 -1.7 3 0 3 C0 2.01 0 1.02 0 0 Z " fill="#78C0F4" transform="translate(185,232)"/>
<path d="M0 0 C1.98 0 3.96 0 6 0 C3.85008755 4.29982491 -2.45902378 5.81065832 -6.75 7.3125 C-9.74671928 7.94642139 -11.20570634 8.11771746 -14 7 C-12 5 -12 5 -8.9375 4.5 C-7.4834375 4.2525 -7.4834375 4.2525 -6 4 C-5.67 3.34 -5.34 2.68 -5 2 C-3.35 2 -1.7 2 0 2 C0 1.34 0 0.68 0 0 Z " fill="#7CC8F2" transform="translate(334,353)"/>
<path d="M0 0 C3.21237609 0.64651594 6.1121946 1.42809174 9 3 C10.70964113 5.67527176 11.2287517 7.86359024 12 11 C9.525 10.01 9.525 10.01 7 9 C7 8.34 7 7.68 7 7 C6.34 7 5.68 7 5 7 C3.375 5.625 3.375 5.625 2 4 C2 3.34 2 2.68 2 2 C1.34 2 0.68 2 0 2 C0 1.34 0 0.68 0 0 Z " fill="#5CB5F1" transform="translate(149,342)"/>
<path d="M0 0 C0.671875 1.77734375 0.671875 1.77734375 1 4 C-0.109375 5.81640625 -0.109375 5.81640625 -1.75 7.5625 C-2.28109375 8.14128906 -2.8121875 8.72007812 -3.359375 9.31640625 C-4.89360104 10.8908144 -6.43852138 12.45263113 -8 14 C-8.66 13.67 -9.32 13.34 -10 13 C-10 12.34 -10 11.68 -10 11 C-9.34 11 -8.68 11 -8 11 C-7.71125 10.401875 -7.4225 9.80375 -7.125 9.1875 C-6 7 -6 7 -4 4 C-3.34 4 -2.68 4 -2 4 C-1.34 2.68 -0.68 1.36 0 0 Z " fill="#6CC0F1" transform="translate(321,212)"/>
<path d="M0 0 C4.77149487 2.31758322 7.4437126 5.45438389 10 10 C10.8125 12.9375 10.8125 12.9375 11 15 C10.34 15 9.68 15 9 15 C5 8.375 5 8.375 5 5 C3.68 4.67 2.36 4.34 1 4 C0.67 2.68 0.34 1.36 0 0 Z " fill="#67B6EB" transform="translate(347,151)"/>
<path d="M0 0 C0.66 0.33 1.32 0.66 2 1 C1.67 2.65 1.34 4.3 1 6 C0.01 6 -0.98 6 -2 6 C-2.4125 7.134375 -2.825 8.26875 -3.25 9.4375 C-5 13 -5 13 -7.1875 13.9375 C-7.785625 13.958125 -8.38375 13.97875 -9 14 C-7.65070536 10.16336928 -5.92248975 7.34827431 -3.375 4.1875 C-2.42753906 3.00220703 -2.42753906 3.00220703 -1.4609375 1.79296875 C-0.97882813 1.20128906 -0.49671875 0.60960937 0 0 Z " fill="#6FC0F1" transform="translate(274,266)"/>
<path d="M0 0 C3.58273331 1.65356922 6.80973467 3.67980703 10 6 C10 6.66 10 7.32 10 8 C10.99 8.33 11.98 8.66 13 9 C14.6875 11.5625 14.6875 11.5625 16 14 C12.56247993 12.4722133 9.81046312 10.49818944 7 8 C7 7.34 7 6.68 7 6 C6.34 6 5.68 6 5 6 C5 5.34 5 4.68 5 4 C4.360625 3.71125 3.72125 3.4225 3.0625 3.125 C1 2 1 2 0 0 Z " fill="#8CC9EE" transform="translate(215,250)"/>
<path d="M0 0 C0.66 0 1.32 0 2 0 C1.39249174 4.13105614 0.18884505 7.43299325 -2 11 C-4.1875 11.875 -4.1875 11.875 -6 12 C-5.36567062 8.83548038 -4.26817072 6.48312221 -2.5625 3.75 C-2.13066406 3.04359375 -1.69882813 2.3371875 -1.25390625 1.609375 C-0.84011719 1.07828125 -0.42632812 0.5471875 0 0 Z " fill="#6BB0EE" transform="translate(149,153)"/>
<path d="M0 0 C8.36628849 7.05024311 8.36628849 7.05024311 11 10 C11 10.66 11 11.32 11 12 C11.66 12 12.32 12 13 12 C12.67 12.66 12.34 13.32 12 14 C11.34 13.67 10.68 13.34 10 13 C10 12.34 10 11.68 10 11 C8.68 11 7.36 11 6 11 C6 9.68 6 8.36 6 7 C5.01 7 4.02 7 3 7 C0 2.77777778 0 2.77777778 0 0 Z " fill="#87C6F1" transform="translate(180,256)"/>
<path d="M0 0 C-1.375 2 -1.375 2 -3 4 C-3.66 4 -4.32 4 -5 4 C-5.66 5.32 -6.32 6.64 -7 8 C-7.33 7.34 -7.66 6.68 -8 6 C-10.01669827 4.86649466 -10.01669827 4.86649466 -12 4 C-8.25 2.875 -8.25 2.875 -6 4 C-6.33 2.68 -6.66 1.36 -7 0 C-2.25 -1.125 -2.25 -1.125 0 0 Z " fill="#7BC3F2" transform="translate(243,261)"/>
<path d="M0 0 C2.4375 0.8125 2.4375 0.8125 5 2 C6.04449911 5.13349732 5.93423645 5.98968256 5 9 C5.66 9.33 6.32 9.66 7 10 C6.01 10 5.02 10 4 10 C0 3.375 0 3.375 0 0 Z " fill="#69B8EF" transform="translate(143,331)"/>
<path d="M0 0 C0.33 0.66 0.66 1.32 1 2 C2.64363134 2.72159424 4.31050386 3.39351421 6 4 C6 4.99 6 5.98 6 7 C5.071875 6.835 4.14375 6.67 3.1875 6.5 C-1.7017878 5.70049416 -1.7017878 5.70049416 -6 8 C-4.55746343 4.63408134 -2.66735273 2.48952921 0 0 Z " fill="#68C3FA" transform="translate(304,232)"/>
<path d="M0 0 C4.8990005 0.40897518 6.6995983 2.39206367 9.8125 6.0625 C10.99779297 7.44115234 10.99779297 7.44115234 12.20703125 8.84765625 C12.79871094 9.55792969 13.39039063 10.26820313 14 11 C10.45595664 11 9.89732095 10.39010515 7.3125 8.125 C6.68988281 7.59132812 6.06726563 7.05765625 5.42578125 6.5078125 C4 5 4 5 4 3 C2.68 2.34 1.36 1.68 0 1 C0 0.67 0 0.34 0 0 Z " fill="#98D0F3" transform="translate(199,236)"/>
<path d="M0 0 C1.32 0.33 2.64 0.66 4 1 C4 1.66 4 2.32 4 3 C2.35 3.66 0.7 4.32 -1 5 C-1 5.66 -1 6.32 -1 7 C-2.98 7 -4.96 7 -7 7 C-5.1875 4.5 -5.1875 4.5 -3 2 C-2.01 2 -1.02 2 0 2 C0 1.34 0 0.68 0 0 Z " fill="#26AFFB" transform="translate(348,338)"/>
<path d="M0 0 C0.68707555 2.49064888 1 4.37886292 1 7 C-1.30368736 8.06652192 -3.64018187 9.06421005 -6 10 C-6.66 9.67 -7.32 9.34 -8 9 C-6.576875 7.88625 -6.576875 7.88625 -5.125 6.75 C-2.67467599 4.72154781 -1.12674637 3.0422152 0 0 Z " fill="#2CA0F1" transform="translate(260,285)"/>
<path d="M0 0 C0 0.66 0 1.32 0 2 C-1.65 2.66 -3.3 3.32 -5 4 C-5 4.66 -5 5.32 -5 6 C-6.32 5.67 -7.64 5.34 -9 5 C-9 4.34 -9 3.68 -9 3 C-6.04341306 0.15291628 -4.05047276 -0.3375394 0 0 Z " fill="#62C1F1" transform="translate(347,347)"/>
<path d="M0 0 C2 3.75 2 3.75 2 6 C1.34 6 0.68 6 0 6 C0 6.66 0 7.32 0 8 C-2.5 9.625 -2.5 9.625 -5 11 C-4.67 8.69 -4.34 6.38 -4 4 C-3.01 4 -2.02 4 -1 4 C-0.67 2.68 -0.34 1.36 0 0 Z " fill="#218DF5" transform="translate(148,159)"/>
<path d="M0 0 C4.95 1.98 4.95 1.98 10 4 C9.34 4.66 8.68 5.32 8 6 C10.97 6.495 10.97 6.495 14 7 C14 7.33 14 7.66 14 8 C11.69 8 9.38 8 7 8 C6.67 7.01 6.34 6.02 6 5 C4.35 4.67 2.7 4.34 1 4 C0.67 2.68 0.34 1.36 0 0 Z " fill="#5EB9F3" transform="translate(223,300)"/>
<path d="M0 0 C0.33 0.66 0.66 1.32 1 2 C3.52733235 2.65555119 3.52733235 2.65555119 6 3 C4.68 3.33 3.36 3.66 2 4 C2 4.66 2 5.32 2 6 C-2.75 5.25 -2.75 5.25 -5 3 C-3.68 3 -2.36 3 -1 3 C-0.67 2.01 -0.34 1.02 0 0 Z " fill="#5CB6F5" transform="translate(171,353)"/>
<path d="M0 0 C0 0.99 0 1.98 0 3 C0.33 3.33 0.66 3.66 1 4 C1.33 4.66 1.66 5.32 2 6 C-1.22791555 8.1519437 -2.28400809 8.20086443 -6 8 C-6 7.34 -6 6.68 -6 6 C-5.34 6 -4.68 6 -4 6 C-3.71125 5.38125 -3.4225 4.7625 -3.125 4.125 C-2 2 -2 2 0 0 Z " fill="#71C4F7" transform="translate(297,240)"/>
<path d="M0 0 C0.75 1.6875 0.75 1.6875 1 4 C-0.80450953 6.87384851 -2.01312923 8.64363 -5.25 9.8125 C-5.8275 9.874375 -6.405 9.93625 -7 10 C-5.79618552 7.50638429 -4.54571278 5.31856917 -3 3 C-2.34 3 -1.68 3 -1 3 C-0.67 2.01 -0.34 1.02 0 0 Z " fill="#83C6ED" transform="translate(329,202)"/>
<path d="M0 0 C1.97179598 2.95769397 2.36929854 4.16417962 2.75 7.5625 C2.84796875 8.34753906 2.9459375 9.13257813 3.046875 9.94140625 C3 12 3 12 1 14 C0.04738513 9.23692563 -0.08333357 4.8333472 0 0 Z " fill="#74BCF1" transform="translate(358,166)"/>
<path d="M0 0 C2.43542455 1.90598443 3.00158196 3.00596275 3.8125 6.0625 C3.874375 7.031875 3.93625 8.00125 4 9 C3.34 9.66 2.68 10.32 2 11 C0.57741188 7.17679443 -0.24042276 4.08718695 0 0 Z " fill="#6CB8EF" transform="translate(140,320)"/>
<path d="M0 0 C0.66 0 1.32 0 2 0 C2 0.66 2 1.32 2 2 C2.66 2 3.32 2 4 2 C4 2.66 4 3.32 4 4 C4.66 4 5.32 4 6 4 C6 4.99 6 5.98 6 7 C4.68 6.67 3.36 6.34 2 6 C2 5.34 2 4.68 2 4 C1.34 4 0.68 4 0 4 C0 2.68 0 1.36 0 0 Z " fill="#65B8EF" transform="translate(195,272)"/>
<path d="M0 0 C0.33 0 0.66 0 1 0 C0.88648483 1.81325551 0.75887039 3.62563357 0.625 5.4375 C0.55539062 6.44683594 0.48578125 7.45617187 0.4140625 8.49609375 C0.27742188 9.32238281 0.14078125 10.14867187 0 11 C-0.99 11.495 -0.99 11.495 -2 12 C-2 9.36 -2 6.72 -2 4 C-1.34 4 -0.68 4 0 4 C0 2.68 0 1.36 0 0 Z " fill="#6CC1F0" transform="translate(359,321)"/>
<path d="M0 0 C0 3.30941204 -0.40339294 5.11090151 -2 8 C-4.625 8.8125 -4.625 8.8125 -7 9 C-6.02180976 7.68677212 -5.0424189 6.37443848 -4.0625 5.0625 C-3.51722656 4.33160156 -2.97195313 3.60070312 -2.41015625 2.84765625 C-1 1 -1 1 0 0 Z " fill="#349EEA" transform="translate(302,236)"/>
<path d="M0 0 C2.31 1.98 4.62 3.96 7 6 C5.68 6.33 4.36 6.66 3 7 C3 6.34 3 5.68 3 5 C2.01 4.67 1.02 4.34 0 4 C0 2.68 0 1.36 0 0 Z " fill="#2E9AEA" transform="translate(210,288)"/>
<path d="M0 0 C1 2 1 2 0.4375 3.875 C-1.52809544 6.78066282 -4.03322518 8.19413707 -7 10 C-5.79618552 7.50638429 -4.54571278 5.31856917 -3 3 C-2.34 3 -1.68 3 -1 3 C-0.67 2.01 -0.34 1.02 0 0 Z " fill="#A1DAF4" transform="translate(288,250)"/>
<path d="M0 0 C1.2065625 0.0309375 1.2065625 0.0309375 2.4375 0.0625 C1.23368552 2.55611571 -0.01678722 4.74393083 -1.5625 7.0625 C-2.2225 6.7325 -2.8825 6.4025 -3.5625 6.0625 C-3.605221 4.39638095 -3.60313832 2.72867115 -3.5625 1.0625 C-2.5625 0.0625 -2.5625 0.0625 0 0 Z " fill="#7BC5F4" transform="translate(255.5625,241.9375)"/>
<path d="M0 0 C0 3 0 3 -1 5 C-1.66 5 -2.32 5 -3 5 C-3 5.66 -3 6.32 -3 7 C-3.66 6.67 -4.32 6.34 -5 6 C-4.67 4.35 -4.34 2.7 -4 1 C-2.68 0.67 -1.36 0.34 0 0 Z " fill="#8CD2F3" transform="translate(352,340)"/>
<path d="M0 0 C0.66 1.32 1.32 2.64 2 4 C1.4225 4.12375 0.845 4.2475 0.25 4.375 C-2.02335767 5.00648824 -3.9253529 5.88858191 -6 7 C-4.60667426 3.63279613 -3.0210714 2.0140476 0 0 Z " fill="#53AEEB" transform="translate(284,257)"/>
<path d="M0 0 C0.61875 0.639375 1.2375 1.27875 1.875 1.9375 C3.82597612 4.03883584 3.82597612 4.03883584 6 5 C6 5.66 6 6.32 6 7 C4.35 7 2.7 7 1 7 C0.67 4.69 0.34 2.38 0 0 Z " fill="#329EF0" transform="translate(217,295)"/>
<path d="M0 0 C1.32 0 2.64 0 4 0 C3.67 1.32 3.34 2.64 3 4 C1.68 4 0.36 4 -1 4 C-0.67 2.68 -0.34 1.36 0 0 Z " fill="#27ADFC" transform="translate(325,354)"/>
<path d="M0 0 C2.375 0.6875 2.375 0.6875 5 2 C6.3125 4.625 6.3125 4.625 7 7 C5 7 5 7 3.375 5.625 C2 4 2 4 2 2 C1.34 2 0.68 2 0 2 C0 1.34 0 0.68 0 0 Z " fill="#9DD3F0" transform="translate(149,342)"/>
<path d="M0 0 C0 3.90838866 -1.50567876 5.11594107 -4 8 C-4.66 7.67 -5.32 7.34 -6 7 C-5.8125 5.1875 -5.8125 5.1875 -5 3 C-2.4375 1.25 -2.4375 1.25 0 0 Z " fill="#A0D6F5" transform="translate(264,234)"/>
<path d="M0 0 C-0.66 1.65 -1.32 3.3 -2 5 C-2.66 5 -3.32 5 -4 5 C-4 4.01 -4 3.02 -4 2 C-4.99 2.33 -5.98 2.66 -7 3 C-7 2.34 -7 1.68 -7 1 C-2.25 0 -2.25 0 0 0 Z " fill="#2F9EF0" transform="translate(309,181)"/>
</svg>
